<svg height='100px' width='100px'  fill="#fefefe" xmlns="http://www.w3.org/2000/svg" xmlns:xlink="http://www.w3.org/1999/xlink" version="1.1" x="0px" y="0px" viewBox="0 0 70 70" style="enable-background:new 0 0 70 70;" xml:space="preserve"><path d="M45.2744141,60.5463867c0.5522461,0,1-0.4477539,1-1V14.1352539c0-0.0263672-0.0129395-0.0483398-0.0149536-0.0740967  c-0.0062256-0.0799561-0.0219727-0.1568604-0.0471191-0.2330322c-0.0133667-0.0407715-0.0233154-0.0809326-0.0415649-0.1191406  c-0.0408325-0.0856934-0.0946655-0.1647949-0.1599121-0.2373047c-0.0152588-0.0168457-0.026123-0.036499-0.0424805-0.0523682  l-10.9547119-11.12146c-0.0864258-0.0876465-0.1885376-0.1499023-0.2960815-0.1994629  c-0.0258789-0.0119629-0.0526123-0.019165-0.0797119-0.0289307c-0.0925903-0.0334473-0.1873169-0.0526123-0.2856445-0.0577393  c-0.0178223-0.0009766-0.0328979-0.0102539-0.0509644-0.0102539H3c-0.5522461,0-1,0.4477539-1,1v56.5449219  c0,0.5522461,0.4477539,1,1,1H45.2744141z M35.3012695,5.4399414l7.5825195,7.6977539h-7.5825195V5.4399414z M4,4.0014648  h29.3012695v10.1362305c0,0.5522461,0.4477539,1,1,1h9.9731445v43.4086914H4V4.0014648z"></path><path d="M9.4399414,32.0888672h27.2651367c0.5522461,0,1-0.4477539,1-1s-0.4477539-1-1-1H9.4399414c-0.5522461,0-1,0.4477539-1,1  S8.8876953,32.0888672,9.4399414,32.0888672z"></path><path d="M9.4399414,21.7578125h23.9121094c0.5522461,0,1-0.4477539,1-1s-0.4477539-1-1-1H9.4399414c-0.5522461,0-1,0.4477539-1,1  S8.8876953,21.7578125,9.4399414,21.7578125z"></path><path d="M9.4399414,43.1220703h21.7431641c0.5522461,0,1-0.4477539,1-1s-0.4477539-1-1-1H9.4399414c-0.5522461,0-1,0.4477539-1,1  S8.8876953,43.1220703,9.4399414,43.1220703z"></path><path d="M38.8374023,52.168457H9.4370117c-0.5522461,0-1,0.4477539-1,1s0.4477539,1,1,1h29.4003906c0.5522461,0,1-0.4477539,1-1  S39.3896484,52.168457,38.8374023,52.168457z"></path><path d="M60.4257812,2.0004883c-4.1767578,0-7.574707,3.3979492-7.574707,7.5742188v6.2138672v4.8608398v32.128418  c0,0.1447754,0.0336914,0.2805176,0.0890503,0.4046631c0.0020752,0.0046387,0.0010986,0.0101318,0.0032349,0.0147705  l6.574707,14.2226562c0.1635742,0.3540039,0.5180664,0.5805664,0.9077148,0.5805664s0.7441406-0.2265625,0.9077148-0.5805664  l3.380127-7.3126221c0.0027466-0.0054932,0.0073853-0.0093994,0.0100098-0.0150146  c0.0021362-0.0046387,0.0014038-0.0095215,0.003479-0.0141602l3.180603-6.8808594  c0.0021362-0.0046387,0.0011597-0.0101318,0.0032349-0.0147705C67.9663086,53.0583496,68,52.9226074,68,52.777832v-32.128418  v-4.8608398V9.574707C68,5.3984375,64.6020508,2.0004883,60.4257812,2.0004883z M66,51.777832h-4.5742188v-30.128418H66V51.777832z   M63.3060303,58.3861084c-1.8510132-0.6153564-3.9281616-0.6116943-5.7605591,0.0004883L55.414917,53.777832h10.0213013  L63.3060303,58.3861084z M54.8510742,51.777832v-30.128418h4.574707v30.128418H54.8510742z M66,19.6494141H54.8510742v-2.8608398H66  V19.6494141z M60.4257812,64.6171875l-2.0316162-4.3947754c1.300415-0.3886719,2.7467041-0.3908691,4.0629272,0.0002441  L60.4257812,64.6171875z M66,14.7885742H54.8510742V9.574707c0-3.0737305,2.5009766-5.5742188,5.574707-5.5742188  S66,6.5009766,66,9.574707V14.7885742z"></path></svg>