<svg height='100px' width='100px'  fill="#fefefe" xmlns="http://www.w3.org/2000/svg" xmlns:xlink="http://www.w3.org/1999/xlink" version="1.1" x="0px" y="0px" viewBox="0 0 70 70" style="enable-background:new 0 0 70 70;" xml:space="preserve"><path d="M64.7851562,5.3164062H5.2148438c-1.7412109,0-3.1572266,1.3916016-3.1572266,3.1025391v44.5927734  c0,1.7109375,1.4160156,3.1035156,3.1572266,3.1035156h22.3512573l-1.164856,6.5683594h-3.2244873c-0.5527344,0-1,0.4472656-1,1  s0.4472656,1,1,1h4.0625h15.5214844h4.0625c0.5527344,0,1-0.4472656,1-1s-0.4472656-1-1-1h-3.2244873l-1.164856-6.5683594  h22.3512573c1.7412109,0,3.1572266-1.3925781,3.1572266-3.1035156V8.4189453  C67.9423828,6.7080078,66.5263672,5.3164062,64.7851562,5.3164062z M5.2148438,7.3164062h59.5703125  c0.6376953,0,1.1572266,0.4941406,1.1572266,1.1025391v37.0625H4.0576172v-37.0625  C4.0576172,7.8105469,4.5771484,7.3164062,5.2148438,7.3164062z M41.5673828,62.6835938H28.4326172l1.1640625-6.5683594h10.8066406  L41.5673828,62.6835938z M64.7851562,54.1152344H41.2412109H28.7587891H5.2148438  c-0.6376953,0-1.1572266-0.4951172-1.1572266-1.1035156v-5.5302734h61.8847656v5.5302734  C65.9423828,53.6201172,65.4228516,54.1152344,64.7851562,54.1152344z"></path><path d="M13.1376953,49.7978516H10.625c-0.5527344,0-1,0.4472656-1,1s0.4472656,1,1,1h2.5126953c0.5527344,0,1-0.4472656,1-1  S13.6904297,49.7978516,13.1376953,49.7978516z"></path><path d="M9.5546875,39.9326172h12.5751953c0.5527344,0,1-0.4472656,1-1v-9.0673828c0-0.5527344-0.4472656-1-1-1H9.5546875  c-0.5527344,0-1,0.4472656-1,1v9.0673828C8.5546875,39.4853516,9.0019531,39.9326172,9.5546875,39.9326172z M10.5546875,30.8652344  h10.5751953v7.0673828H10.5546875V30.8652344z"></path><path d="M41.2880859,28.8652344H28.7119141c-0.5527344,0-1,0.4472656-1,1v9.0673828c0,0.5527344,0.4472656,1,1,1h12.5761719  c0.5527344,0,1-0.4472656,1-1v-9.0673828C42.2880859,29.3125,41.8408203,28.8652344,41.2880859,28.8652344z M40.2880859,37.9326172  H29.7119141v-7.0673828h10.5761719V37.9326172z"></path><path d="M46.8701172,29.8652344v9.0673828c0,0.5527344,0.4472656,1,1,1h12.5751953c0.5527344,0,1-0.4472656,1-1v-9.0673828  c0-0.5527344-0.4472656-1-1-1H47.8701172C47.3173828,28.8652344,46.8701172,29.3125,46.8701172,29.8652344z M48.8701172,30.8652344  h10.5751953v7.0673828H48.8701172V30.8652344z"></path><path d="M11.0625,14.8652344h47.875c0.5527344,0,1-0.4472656,1-1s-0.4472656-1-1-1h-47.875c-0.5527344,0-1,0.4472656-1,1  S10.5097656,14.8652344,11.0625,14.8652344z"></path><path d="M11.0625,21.6152344h47.875c0.5527344,0,1-0.4472656,1-1s-0.4472656-1-1-1h-47.875c-0.5527344,0-1,0.4472656-1,1  S10.5097656,21.6152344,11.0625,21.6152344z"></path></svg>