<svg height='100px' width='100px'  fill="#3a2c3b" xmlns="http://www.w3.org/2000/svg" xmlns:xlink="http://www.w3.org/1999/xlink" version="1.1" x="0px" y="0px" viewBox="0 0 70 70" style="enable-background:new 0 0 70 70;" xml:space="preserve"><path d="M65.7724609,2H4.2275391C2.9384766,2,1.8901367,3.0068359,1.8901367,4.2446289v61.5107422  C1.8901367,66.9931641,2.9384766,68,4.2275391,68h61.5449219c1.2890625,0,2.3374023-1.0068359,2.3374023-2.2446289V4.2446289  C68.1098633,3.0068359,67.0615234,2,65.7724609,2z M3.8901367,18.378418h62.2197266v21.1728516H57.394043  c-0.3242188,0-0.6279297,0.1572266-0.8154297,0.4213867l-6.7817383,9.5610352l-7.2207031-17.1210938  c-0.1513672-0.3588867-0.4970703-0.597168-0.8862305-0.6108398c-0.3916016-0.0180664-0.7509766,0.2001953-0.9272461,0.5473633  L33.46875,46.7363281l-8.2758789-10.3916016c-0.2084961-0.2617188-0.5351562-0.4033203-0.8681641-0.3730469  c-0.3339844,0.0288086-0.6308594,0.2226562-0.7915039,0.5166016L17.237793,48.0048828l-4.3417969-7.6152344  c-0.1777344-0.3120117-0.5092773-0.5048828-0.8686523-0.5048828h-8.137207V18.378418z M4.2275391,4h61.5449219  c0.1831055,0,0.3374023,0.1118164,0.3374023,0.2446289V16.378418H3.8901367V4.2446289C3.8901367,4.1118164,4.0444336,4,4.2275391,4z   M65.7724609,66H4.2275391c-0.1831055,0-0.3374023-0.1118164-0.3374023-0.2446289V41.8847656h7.5561523l4.9414062,8.6665039  c0.1791992,0.3154297,0.4985352,0.5263672,0.8774414,0.5048828c0.362793-0.003418,0.6948242-0.2021484,0.8686523-0.5205078  l6.4321289-11.7675781l8.3085938,10.4321289c0.2124023,0.2661133,0.5454102,0.4121094,0.8837891,0.371582  c0.3383789-0.0341797,0.6362305-0.2387695,0.7905273-0.5424805l7.0224609-13.8520508l7.0805664,16.7885742  c0.1411133,0.3344727,0.4521484,0.565918,0.8125,0.6054688c0.0366211,0.0039062,0.0727539,0.0058594,0.1088867,0.0058594  c0.3217773,0,0.6269531-0.1552734,0.8154297-0.4213867l7.5219727-10.6044922h8.1992188v24.2041016  C66.1098633,65.8881836,65.9555664,66,65.7724609,66z"></path><path d="M7.347168,11.1914062h2.2675781c0.5522461,0,1-0.4477539,1-1s-0.4477539-1-1-1H7.347168c-0.5522461,0-1,0.4477539-1,1  S6.7949219,11.1914062,7.347168,11.1914062z"></path><path d="M15.1298828,11.1914062h2.2675781c0.5522461,0,1-0.4477539,1-1s-0.4477539-1-1-1h-2.2675781c-0.5522461,0-1,0.4477539-1,1  S14.5776367,11.1914062,15.1298828,11.1914062z"></path><path d="M22.9125977,11.1914062h2.2675781c0.5522461,0,1-0.4477539,1-1s-0.4477539-1-1-1h-2.2675781c-0.5522461,0-1,0.4477539-1,1  S22.3603516,11.1914062,22.9125977,11.1914062z"></path><path d="M30.3334961,11.1914062H61.5c0.5522461,0,1-0.4477539,1-1s-0.4477539-1-1-1H30.3334961c-0.5522461,0-1,0.4477539-1,1  S29.78125,11.1914062,30.3334961,11.1914062z"></path></svg>