<svg height='100px' width='100px'  fill="#fefefe" xmlns="http://www.w3.org/2000/svg" xmlns:xlink="http://www.w3.org/1999/xlink" version="1.1" x="0px" y="0px" viewBox="0 0 70 70" style="enable-background:new 0 0 70 70;" xml:space="preserve"><path d="M56.1572266,47.1704102v0.4254761c-1.8405151,0.4254761-3.2148438,1.9810181-3.2148438,3.8430786  c0,2.1879883,1.890625,3.9677734,4.2148438,3.9677734c1.2216797,0,2.2148438,0.8828125,2.2148438,1.9682617  s-0.9931641,1.9682617-2.2148438,1.9682617S54.9423828,58.4604492,54.9423828,57.375c0-0.5522461-0.4472656-1-1-1s-1,0.4477539-1,1  c0,1.8620605,1.3743286,3.4176025,3.2148438,3.8430786v0.4249878c0,0.5522461,0.4472656,1,1,1s1-0.4477539,1-1v-0.4249878  c1.8405151-0.4254761,3.2148438-1.9810181,3.2148438-3.8430786c0-2.1879883-1.890625-3.9682617-4.2148438-3.9682617  c-1.2216797,0-2.2148438-0.8828125-2.2148438-1.9677734c0-1.0854492,0.9931641-1.9682617,2.2148438-1.9682617  s2.2148438,0.8828125,2.2148438,1.9682617c0,0.5522461,0.4472656,1,1,1s1-0.4477539,1-1  c0-1.8620605-1.3743286-3.4176025-3.2148438-3.8430786v-0.4254761c0-0.5522461-0.4472656-1-1-1  S56.1572266,46.6181641,56.1572266,47.1704102z"></path><path d="M21.4169922,68c10.7060547,0,19.4160156-8.7104492,19.4160156-19.4165039V35.5219727  c0-10.366394-8.1724243-18.836853-18.409668-19.3654785C22.4915161,9.442627,27.9690552,4,34.6982422,4  c6.2988281,0,10.6982422,5.050293,10.6982422,12.2749023l-0.0732422,10.5390625  c0,3.5380859,2.8789062,6.4165039,6.4169922,6.4165039c2.4355469,0,4.4169922,1.9814453,4.4169922,4.4165039v5.9676514  c-5.5119019,0.506897-9.84375,5.151062-9.84375,10.7921143c0,5.9790039,4.8642578,10.8432617,10.84375,10.8432617  C63.1357422,65.25,68,60.3857422,68,54.4067383c0-5.6409912-4.3317261-10.2850952-9.8427734-10.7921143v-5.9676514  c0-3.5380859-2.8789062-6.4165039-6.4169922-6.4165039c-2.4355469,0-4.4169922-1.9814453-4.4169922-4.409668l0.0732422-10.5390625  C47.3964844,7.8730469,42.1748047,2,34.6982422,2c-7.8325195,0-14.2062988,6.3392334-14.2749023,14.1558228  C10.1792603,16.6779785,2,25.1512451,2,35.5219727v13.0615234C2,59.2895508,10.7099609,68,21.4169922,68z M66,54.4067383  C66,59.2827148,62.0332031,63.25,57.1572266,63.25s-8.84375-3.9672852-8.84375-8.8432617s3.9677734-8.8427734,8.84375-8.8427734  S66,49.5307617,66,54.4067383z M38.8330078,35.5219727v3.5H22.4169922v-2.1259766  c2.2041626-0.4627686,3.8652344-2.420105,3.8652344-4.7597656v-6.1655273c0-2.3396606-1.6610718-4.2969971-3.8652344-4.7597656  v-3.0548096C31.5543213,18.678833,38.8330078,26.2559814,38.8330078,35.5219727z M21.4121704,23.105957  c0.001709,0,0.0031128,0.0009766,0.0048218,0.0009766s0.0031128-0.0009766,0.0048218-0.0009766  c1.5778198,0.0026855,2.8604126,1.2863159,2.8604126,2.8647461v6.1655273c0,1.5751343-1.2774048,2.8557129-2.850708,2.8637695  c-0.005127-0.000061-0.0093994-0.0029297-0.0145264-0.0029297S21.4075928,34.999939,21.4024658,35  c-1.5733032-0.0080566-2.850708-1.2886353-2.850708-2.8637695v-6.1655273  C18.5517578,24.3922729,19.8343506,23.1086426,21.4121704,23.105957z M20.4169922,18.1561279v3.0548096  c-2.2041626,0.4627686-3.8652344,2.420105-3.8652344,4.7597656v6.1655273c0,2.3396606,1.6610718,4.2969971,3.8652344,4.7597656  v2.1259766H4v-3.5C4,26.2559814,11.2796631,18.678833,20.4169922,18.1561279z M4,41.0219727h34.8330078v7.5615234  C38.8330078,58.1870117,31.0205078,66,21.4169922,66S4,58.1870117,4,48.5834961V41.0219727z"></path></svg>