<svg height='100px' width='100px'  fill="#fefefe" xmlns="http://www.w3.org/2000/svg" xmlns:xlink="http://www.w3.org/1999/xlink" version="1.1" x="0px" y="0px" viewBox="0 0 70 70" style="enable-background:new 0 0 70 70;" xml:space="preserve"><path d="M41.9580078,35.3759766c0.1953125,0.1953125,0.4511719,0.2929688,0.7070312,0.2929688  s0.5117188-0.0976562,0.7070312-0.2929688l8.2226562-8.2231445c0.390625-0.390625,0.390625-1.0234375,0-1.4140625  l-8.2226562-8.2226562c-0.390625-0.390625-1.0234375-0.390625-1.4140625,0s-0.390625,1.0234375,0,1.4140625l7.515625,7.515625  l-7.515625,7.5161133C41.5673828,34.3525391,41.5673828,34.9853516,41.9580078,35.3759766z"></path><path d="M26.6279297,35.3759766c0.1953125,0.1953125,0.4511719,0.2929688,0.7070312,0.2929688  s0.5117188-0.0976562,0.7070312-0.2929688c0.390625-0.390625,0.390625-1.0234375,0-1.4140625l-7.515625-7.5161133l7.515625-7.515625  c0.390625-0.390625,0.390625-1.0234375,0-1.4140625s-1.0234375-0.390625-1.4140625,0l-8.2226562,8.2226562  c-0.390625,0.390625-0.390625,1.0234375,0,1.4140625L26.6279297,35.3759766z"></path><path d="M30.2324219,40.8110352c0.1044922,0.034668,0.2104492,0.0512695,0.3149414,0.0512695  c0.4194336,0,0.8100586-0.2661133,0.9492188-0.6855469l8.9052734-26.8320312  c0.1738281-0.5239258-0.1098633-1.0898438-0.6342773-1.2641602c-0.5224609-0.1738281-1.090332,0.1103516-1.2641602,0.6342773  L29.5981445,39.546875C29.4243164,40.0708008,29.7080078,40.6367188,30.2324219,40.8110352z"></path><path d="M2.0581055,7.6616211v47.1000977c0,1.074707,0.8740234,1.9492188,1.9487305,1.9492188H27.755249l-0.0169067,5.5766602  h-3.0029907c-0.5522461,0-1,0.4477539-1,1s0.4477539,1,1,1h4h12.5292969h4c0.5522461,0,1-0.4477539,1-1s-0.4477539-1-1-1h-3.0029907  l-0.0169067-5.5766602h23.7484131c1.074707,0,1.9487305-0.8745117,1.9487305-1.9492188V7.6616211  c0-1.074707-0.8740234-1.9492188-1.9487305-1.9492188H4.0068359C2.9321289,5.7124023,2.0581055,6.5869141,2.0581055,7.6616211z   M40.2617188,62.2875977H29.7382812l0.0170898-5.5766602h10.4892578L40.2617188,62.2875977z M41.3421021,54.7311401  c-0.034668-0.0036011-0.0648193-0.0202026-0.1004028-0.0202026H28.7583008c-0.0540161,0-0.1005249,0.0223999-0.1522217,0.0306396  L4.0581055,54.7617188v-7.5820312h61.9268799l0.0081787,7.53125L41.3421021,54.7311401z M65.9418945,7.6616211l0.0408936,37.5180664  H4.0581055V7.7124023L65.9418945,7.6616211z"></path><path d="M13.137207,49.9453125H10.625c-0.5522461,0-1,0.4477539-1,1s0.4477539,1,1,1h2.512207c0.5522461,0,1-0.4477539,1-1  S13.6894531,49.9453125,13.137207,49.9453125z"></path></svg>