<svg height='100px' width='100px'  fill="#fefefe" xmlns="http://www.w3.org/2000/svg" xmlns:xlink="http://www.w3.org/1999/xlink" version="1.1" x="0px" y="0px" viewBox="0 0 70 70" style="enable-background:new 0 0 70 70;" xml:space="preserve"><path d="M24.4335938,1.9985352c-3.8066406,0-6.9033203,3.0966797-6.9033203,6.9033203v0.3334961h-4.4267578  c-0.5527344,0-1,0.4477539-1,1v3.5961914H3c-0.5527344,0-1,0.4477539-1,1v52.1699219c0,0.5522461,0.4472656,1,1,1h42.8701172  c0.5527344,0,1-0.4477539,1-1V14.831543c0-0.5522461-0.4472656-1-1-1h-9.1074219v-3.5961914c0-0.5522461-0.4472656-1-1-1h-4.4267578  V8.9018555C31.3359375,5.0952148,28.2392578,1.9985352,24.4335938,1.9985352z M44.8701172,15.831543v50.1699219H4V15.831543  h8.1035156v3.7124023c0,0.5522461,0.4472656,1,1,1h22.6591797c0.5527344,0,1-0.4477539,1-1V15.831543H44.8701172z   M34.7626953,11.2353516v3.581665c-0.000061,0.005127-0.0029297,0.0093994-0.0029297,0.0145264  s0.0028687,0.0093994,0.0029297,0.0145264v3.697876H14.1035156v-3.7075195c0-0.001709,0.0009766-0.0031738,0.0009766-0.0048828  s-0.0009766-0.0031128-0.0009766-0.0048218v-3.5913696h4.4267578c0.5527344,0,1-0.4477539,1-1V8.9018555  c0-2.7036133,2.1992188-4.9033203,4.9033203-4.9033203c2.703125,0,4.9023438,2.199707,4.9023438,4.9033203v1.3334961  c0,0.5522461,0.4472656,1,1,1H34.7626953z"></path><path d="M24.4345703,5.6728516c-1.7685547,0-3.2080078,1.4394531-3.2080078,3.2084961s1.4394531,3.2084961,3.2080078,3.2084961  c1.7695312,0,3.2089844-1.4394531,3.2089844-3.2084961S26.2041016,5.6728516,24.4345703,5.6728516z M24.4345703,10.0898438  c-0.6660156,0-1.2080078-0.5419922-1.2080078-1.2084961s0.5419922-1.2084961,1.2080078-1.2084961  c0.6669922,0,1.2089844,0.5419922,1.2089844,1.2084961S25.1015625,10.0898438,24.4345703,10.0898438z"></path><path d="M25.6816406,38.4140625h3.9238281c0.5527344,0,1-0.4477539,1-1v-8.4545898c0-0.5522461-0.4472656-1-1-1h-9.8476562  c-0.5527344,0-1,0.4477539-1,1v8.4545898c0,0.5522461,0.4472656,1,1,1h3.9238281v4.3911133H11.6523438c-0.5527344,0-1,0.4477539-1,1  v5.4472656c-1.9584351,0.4558716-3.4257812,2.2064819-3.4257812,4.3017578c0,2.4404297,1.9853516,4.4257812,4.4257812,4.4257812  s4.4257812-1.9853516,4.4257812-4.4257812c0-2.0952759-1.4673462-3.8458862-3.4257812-4.3017578v-4.4472656h11.0292969v4.4469604  c-1.9589844,0.4555054-3.4267578,2.2064209-3.4267578,4.302063c0,2.4404297,1.9853516,4.4257812,4.4257812,4.4257812  s4.4257812-1.9853516,4.4257812-4.4257812c0-2.0949097-1.4668579-3.8452148-3.4248047-4.3014526v-4.4475708h10.5361328v4.4472656  c-1.9584351,0.4558716-3.4257812,2.2064819-3.4257812,4.3017578c0,2.4404297,1.9853516,4.4257812,4.4257812,4.4257812  s4.4257812-1.9853516,4.4257812-4.4257812c0-2.0952759-1.4673462-3.8458862-3.4257812-4.3017578v-5.4472656  c0-0.5522461-0.4472656-1-1-1H25.6816406V38.4140625z M20.7578125,29.9594727h7.8476562v6.4545898h-7.8476562V29.9594727z   M14.078125,53.5541992c0,1.3374023-1.0878906,2.4257812-2.4257812,2.4257812s-2.4257812-1.0883789-2.4257812-2.4257812  s1.0878906-2.4257812,2.4257812-2.4257812S14.078125,52.2167969,14.078125,53.5541992z M39.6435547,53.5541992  c0,1.3374023-1.0878906,2.4257812-2.4257812,2.4257812s-2.4257812-1.0883789-2.4257812-2.4257812  s1.0878906-2.4257812,2.4257812-2.4257812S39.6435547,52.2167969,39.6435547,53.5541992z M27.1064453,53.5541992  c0,1.3374023-1.0878906,2.4257812-2.4257812,2.4257812s-2.4257812-1.0883789-2.4257812-2.4257812  s1.0878906-2.4257812,2.4257812-2.4257812S27.1064453,52.2167969,27.1064453,53.5541992z"></path><path d="M52.5705566,50.4616089c0.0002441,0.0004883,0.0004272,0.0009766,0.0006104,0.0014648l6.7462158,16.9089966  c0.1513672,0.3798828,0.5195312,0.6293945,0.9287109,0.6293945s0.7773438-0.2495117,0.9287109-0.6293945l3.7485962-9.3956299  c0.0005493-0.0014648,0.0018311-0.0023193,0.0023804-0.0037842c0.0004272-0.0012207,0.0001221-0.0023804,0.0005493-0.0036011  l2.9946289-7.5057983c0.0003052-0.0006104,0.0004883-0.0012817,0.0007935-0.0019531l0.006958-0.0174561  c0.0429077-0.1074219,0.0592651-0.2197266,0.0635376-0.3322144C67.9927979,50.0981445,68,50.086853,68,50.0732422V16.4130859  V5.734375C68,3.675293,66.3251953,2,64.265625,2h-8.0390625c-2.0595703,0-3.734375,1.675293-3.734375,3.734375v10.6787109  v33.6601562c0,0.0136719,0.0072632,0.0250244,0.0078125,0.0385742c0.0043335,0.1124268,0.0206299,0.2246704,0.0634766,0.3320312  L52.5705566,50.4616089z M54.4921875,49.0732422V22.2475586h4.7539062v26.8256836H54.4921875z M61.2460938,22.2475586H66v26.8256836  h-4.7539062V22.2475586z M66,20.2475586H54.4921875v-2.8344727H66V20.2475586z M60.2460938,64.3027344l-2.4125366-6.046814  c1.5761719-0.4041138,3.2480469-0.4042358,4.8252563-0.0004272L60.2460938,64.3027344z M63.406189,56.3823853  c-2.0581055-0.5764771-4.2630615-0.5761719-6.3198853,0.0006714l-2.1185303-5.3098145h10.5566406L63.406189,56.3823853z   M54.4921875,5.734375C54.4921875,4.777832,55.2705078,4,56.2265625,4h8.0390625C65.2216797,4,66,4.777832,66,5.734375v9.6787109  H54.4921875V5.734375z"></path></svg>