<svg height='100px' width='100px'  fill="#3a2c3b" xmlns="http://www.w3.org/2000/svg" xmlns:xlink="http://www.w3.org/1999/xlink" version="1.1" x="0px" y="0px" viewBox="0 0 70 70" style="enable-background:new 0 0 70 70;" xml:space="preserve"><path d="M5.0317383,68h59.9365234C66.6401367,68,68,66.6401367,68,64.9682617V5.0317383C68,3.3598633,66.6401367,2,64.9682617,2  H5.0317383C3.3598633,2,2,3.3598633,2,5.0317383v59.9365234C2,66.6401367,3.3598633,68,5.0317383,68z M64.9682617,66H5.0317383  C4.4628906,66,4,65.5371094,4,64.9682617V20.6469727h62v44.3212891C66,65.5371094,65.5371094,66,64.9682617,66z M5.0317383,4  h59.9365234C65.5371094,4,66,4.4628906,66,5.0317383v13.6152344H4V5.0317383C4,4.4628906,4.4628906,4,5.0317383,4z"></path><path d="M40.6347656,12.5639648H60.3125c0.5522461,0,1-0.4477539,1-1s-0.4477539-1-1-1H40.6347656c-0.5522461,0-1,0.4477539-1,1  S40.0825195,12.5639648,40.6347656,12.5639648z"></path><path d="M9.6875,12.5639648h4.5385742c0.5522461,0,1-0.4477539,1-1s-0.4477539-1-1-1H9.6875c-0.5522461,0-1,0.4477539-1,1  S9.1352539,12.5639648,9.6875,12.5639648z"></path><path d="M19.6411133,12.5639648h4.5385742c0.5522461,0,1-0.4477539,1-1s-0.4477539-1-1-1h-4.5385742c-0.5522461,0-1,0.4477539-1,1  S19.0888672,12.5639648,19.6411133,12.5639648z"></path><path d="M29.5942383,12.5639648h4.5390625c0.5522461,0,1-0.4477539,1-1s-0.4477539-1-1-1h-4.5390625c-0.5522461,0-1,0.4477539-1,1  S29.0419922,12.5639648,29.5942383,12.5639648z"></path><path d="M45.4355469,33.5068359c-0.3916016-0.3891602-1.0239258-0.3867188-1.4145508,0.0043945  c-0.3891602,0.3920898-0.387207,1.0249023,0.0043945,1.4145508l8.4262695,8.3740234l-8.3745117,8.4262695  c-0.3891602,0.3920898-0.387207,1.0249023,0.0043945,1.4145508c0.1953125,0.1938477,0.4501953,0.2905273,0.7050781,0.2905273  c0.2568359,0,0.5136719-0.0986328,0.7094727-0.2949219l9.0791016-9.1357422  c0.3891602-0.3920898,0.387207-1.0249023-0.0043945-1.4145508L45.4355469,33.5068359z"></path><path d="M25.9790039,33.5112305c-0.3901367-0.3916016-1.0224609-0.394043-1.4145508-0.0043945l-9.1352539,9.0791016  c-0.3916016,0.3896484-0.3935547,1.0224609-0.0043945,1.4145508l9.0791016,9.1357422  c0.1958008,0.1962891,0.4526367,0.2949219,0.7094727,0.2949219c0.2548828,0,0.5097656-0.0966797,0.7050781-0.2905273  c0.3916016-0.3896484,0.3935547-1.0224609,0.0043945-1.4145508l-8.3745117-8.4262695l8.4262695-8.3740234  C26.3662109,34.5361328,26.3681641,33.9033203,25.9790039,33.5112305z"></path><path d="M42.2216797,24.7988281c-0.5170898-0.2001953-1.0947266,0.0546875-1.2949219,0.5683594L27.2099609,60.5532227  c-0.2006836,0.5146484,0.0537109,1.0942383,0.5683594,1.2949219c0.1196289,0.0463867,0.2421875,0.0688477,0.362793,0.0688477  c0.4003906,0,0.7783203-0.2421875,0.9321289-0.637207L42.7900391,26.09375  C42.9907227,25.5791016,42.7363281,24.9995117,42.2216797,24.7988281z"></path></svg>