<svg height='100px' width='100px'  fill="#fefefe" xmlns="http://www.w3.org/2000/svg" xmlns:xlink="http://www.w3.org/1999/xlink" version="1.1" x="0px" y="0px" viewBox="0 0 70 70" style="enable-background:new 0 0 70 70;" xml:space="preserve"><path d="M65.7724609,2H4.2275391C2.9384766,2,1.8896484,3.0068359,1.8896484,4.2441406v61.5117188  C1.8896484,66.9931641,2.9384766,68,4.2275391,68h61.5449219c1.2890625,0,2.3378906-1.0068359,2.3378906-2.2441406V4.2441406  C68.1103516,3.0068359,67.0615234,2,65.7724609,2z M4.2275391,4h61.5449219c0.2021484,0,0.3378906,0.1259766,0.3378906,0.2441406  v12.1347656H3.8896484V4.2441406C3.8896484,4.1259766,4.0253906,4,4.2275391,4z M65.7724609,66H4.2275391  c-0.2021484,0-0.3378906-0.1259766-0.3378906-0.2441406V18.3789062h62.2207031v47.3769531  C66.1103516,65.8740234,65.9746094,66,65.7724609,66z"></path><path d="M7.3466797,11.1914062h2.2685547c0.5527344,0,1-0.4472656,1-1s-0.4472656-1-1-1H7.3466797c-0.5527344,0-1,0.4472656-1,1  S6.7939453,11.1914062,7.3466797,11.1914062z"></path><path d="M15.1298828,11.1914062h2.2675781c0.5527344,0,1-0.4472656,1-1s-0.4472656-1-1-1h-2.2675781c-0.5527344,0-1,0.4472656-1,1  S14.5771484,11.1914062,15.1298828,11.1914062z"></path><path d="M22.9121094,11.1914062h2.2685547c0.5527344,0,1-0.4472656,1-1s-0.4472656-1-1-1h-2.2685547c-0.5527344,0-1,0.4472656-1,1  S22.359375,11.1914062,22.9121094,11.1914062z"></path><path d="M30.3330078,11.1914062H61.5c0.5527344,0,1-0.4472656,1-1s-0.4472656-1-1-1H30.3330078c-0.5527344,0-1,0.4472656-1,1  S29.7802734,11.1914062,30.3330078,11.1914062z"></path><path d="M54.7802734,23.3769531H15.3466797c-1.5273438,0-2.7695312,1.2421875-2.7695312,2.7685547v24.0996094  c0,1.5273438,1.2421875,2.7695312,2.7695312,2.7695312h4.2539062v6.9873047c0,0.3867188,0.2226562,0.7392578,0.5732422,0.9042969  c0.1357422,0.0644531,0.28125,0.0957031,0.4267578,0.0957031c0.2275391,0,0.4521484-0.0771484,0.6347656-0.2275391  l9.4423828-7.7597656h24.1025391c1.5273438,0,2.7695312-1.2421875,2.7695312-2.7695312V26.1455078  C57.5498047,24.6191406,56.3076172,23.3769531,54.7802734,23.3769531z M55.5498047,50.2451172  c0,0.4248047-0.3447266,0.7695312-0.7695312,0.7695312H30.3193359c-0.2314453,0-0.4560547,0.0800781-0.6347656,0.2275391  l-8.0839844,6.6435547v-5.8710938c0-0.5527344-0.4472656-1-1-1h-5.2539062c-0.4248047,0-0.7695312-0.3447266-0.7695312-0.7695312  V26.1455078c0-0.4238281,0.3447266-0.7685547,0.7695312-0.7685547h39.4335938c0.4248047,0,0.7695312,0.3447266,0.7695312,0.7685547  V50.2451172z"></path><path d="M47.0351562,30.1123047H23.0917969c-0.5527344,0-1,0.4472656-1,1s0.4472656,1,1,1h23.9433594c0.5527344,0,1-0.4472656,1-1  S47.5878906,30.1123047,47.0351562,30.1123047z"></path><path d="M47.0351562,37.1953125H23.0917969c-0.5527344,0-1,0.4472656-1,1s0.4472656,1,1,1h23.9433594c0.5527344,0,1-0.4472656,1-1  S47.5878906,37.1953125,47.0351562,37.1953125z"></path><path d="M47.0351562,44.2792969H23.0917969c-0.5527344,0-1,0.4472656-1,1s0.4472656,1,1,1h23.9433594c0.5527344,0,1-0.4472656,1-1  S47.5878906,44.2792969,47.0351562,44.2792969z"></path></svg>