<svg height='100px' width='100px'  fill="#3a2c3b" xmlns="http://www.w3.org/2000/svg" xmlns:xlink="http://www.w3.org/1999/xlink" version="1.1" x="0px" y="0px" viewBox="0 0 70 70" style="enable-background:new 0 0 70 70;" xml:space="preserve"><path d="M43.9033203,25.0268555c2.0634766,0,3.7421875-1.6787109,3.7421875-3.7421875  c0-2.0629883-1.6787109-3.7416992-3.7421875-3.7416992s-3.7421875,1.6787109-3.7421875,3.7416992  c0,0.8469849,0.2935181,1.6202393,0.7697144,2.2481079l-4.949585,5.0318604  c-0.6734619-0.6501465-1.5856934-1.0548706-2.5935669-1.0548706c-1.1516113,0-2.1706543,0.5344849-2.8575439,1.355896  l-4.7686768-4.4384155c0.0453491-0.2323608,0.0725098-0.4713135,0.0725098-0.7167969  c0-2.0634766-1.6787109-3.7421875-3.7421875-3.7421875s-3.7421875,1.6787109-3.7421875,3.7421875  c0,0.4656372,0.0959473,0.9069824,0.2521362,1.3186035l-5.3638916,5.7219849  c-0.55896-0.3325806-1.2036133-0.5361938-1.8999634-0.5361938c-2.0634766,0-3.7421875,1.6787109-3.7421875,3.7416992  s1.6787109,3.7416992,3.7421875,3.7416992s3.7421875-1.6787109,3.7421875-3.7416992  c0-0.6382446-0.1756592-1.2305298-0.4586792-1.756897l5.1939087-5.5406494  c0.6327515,0.4896851,1.4162598,0.7931519,2.2764893,0.7931519c1.0709229,0,2.0316162-0.4580078,2.7143555-1.1813354  l4.8842773,4.5460815c-0.0169678,0.1443481-0.0439453,0.2857666-0.0439453,0.4345703  c0,2.0629883,1.6787109,3.7416992,3.7412109,3.7416992c2.0634766,0,3.7421875-1.6787109,3.7421875-3.7416992  c0-0.3059082-0.0472412-0.5990601-0.1168823-0.8838501l5.5178223-5.6095581  C42.9568481,24.927063,43.4178467,25.0268555,43.9033203,25.0268555z M11.3378906,35.6982422  c-0.9609375,0-1.7421875-0.78125-1.7421875-1.7416992s0.78125-1.7416992,1.7421875-1.7416992s1.7421875,0.78125,1.7421875,1.7416992  S12.2988281,35.6982422,11.3378906,35.6982422z M22.0917969,25.4521484c-0.9609375,0-1.7421875-0.78125-1.7421875-1.7416992  s0.78125-1.7421875,1.7421875-1.7421875S23.8339844,22.75,23.8339844,23.7104492S23.0527344,25.4521484,22.0917969,25.4521484z   M43.9033203,19.5429688c0.9609375,0,1.7421875,0.78125,1.7421875,1.7416992s-0.78125,1.7421875-1.7421875,1.7421875  s-1.7421875-0.7817383-1.7421875-1.7421875S42.9423828,19.5429688,43.9033203,19.5429688z M33.3876953,32.9931641  c-0.9599609,0-1.7412109-0.78125-1.7412109-1.7416992s0.78125-1.7416992,1.7412109-1.7416992  c0.9609375,0,1.7421875,0.78125,1.7421875,1.7416992S34.3486328,32.9931641,33.3876953,32.9931641z"></path><path d="M45.7294922,9.4960938c-9.9931641-9.984375-26.2480469-9.9775391-36.2333984,0.015625c0,0,0,0,0,0.0004883  c-9.9853516,9.9936523-9.9775391,26.2475586,0.015625,36.2329102c4.9941406,4.9897461,11.5507812,7.4838867,18.1083984,7.4838867  c5.4432983,0,10.8841553-1.7250366,15.4329224-5.1627808l3.3981934,3.3981934l-1.3633423,1.3632202  c-0.1875,0.1875-0.2929688,0.4418945-0.2929688,0.7070312s0.1054688,0.5195312,0.2929688,0.7070312l11.8632812,11.8623047  C58.1728516,67.3266602,59.7988281,68,61.5273438,68s3.3544922-0.6733398,4.5771484-1.8959961  c2.5234375-2.5234375,2.5234375-6.6298828,0-9.1533203L54.2421875,45.0883789c-0.390625-0.390625-1.0234375-0.390625-1.4140625,0  l-1.3630981,1.3629761l-3.3986206-3.3986206C55.6511841,33.0174561,54.8742065,18.633667,45.7294922,9.4960938z   M10.9257812,44.3300781c-9.2138672-9.2055664-9.2207031-24.190918-0.015625-33.4047852v0.0004883  c9.2070312-9.2138672,24.1923828-9.2207031,33.4052734-0.0146484c9.2138672,9.2055664,9.2207031,24.190918,0.015625,33.4042969  C35.1240234,53.5288086,20.1386719,53.5366211,10.9257812,44.3300781z M64.6904297,64.6899414  C63.8457031,65.534668,62.7216797,66,61.5273438,66s-2.3173828-0.465332-3.1621094-1.3100586l-6.772522-6.7719116  l6.3255005-6.3255005l6.7722168,6.7722168C66.4335938,60.1083984,66.4335938,62.9462891,64.6904297,64.6899414z   M53.5351562,47.2094727l2.9689941,2.9689941l-6.3255615,6.3255615l-2.9696045-2.9693604L53.5351562,47.2094727z   M50.0508423,47.8652954l-2.1854248,2.1851807l-3.256958-3.256958c0.3862305-0.3425903,0.7670288-0.694519,1.1366577-1.0645142  c0.3643188-0.364624,0.7112427-0.7398071,1.0489502-1.1204834L50.0508423,47.8652954z"></path></svg>