<svg height='100px' width='100px'  fill="#3a2c3b" xmlns="http://www.w3.org/2000/svg" xmlns:xlink="http://www.w3.org/1999/xlink" version="1.1" x="0px" y="0px" viewBox="0 0 70 70" style="enable-background:new 0 0 70 70;" xml:space="preserve"><path d="M67.9418945,55.0883789V7.3349609c0-1.074707-0.8740234-1.9492188-1.9487305-1.9492188H4.0068359  c-1.074707,0-1.9487305,0.8745117-1.9487305,1.9492188v47.753418c0,1.074707,0.8740234,1.9492188,1.9487305,1.9492188h23.2218018  l-2.7042236,6.175293c-0.1352539,0.3095703-0.1054688,0.6660156,0.0791016,0.9487305  c0.1845703,0.2822266,0.4995117,0.4526367,0.8369141,0.4526367h19.1191406c0.3374023,0,0.6523438-0.1704102,0.8369141-0.4526367  c0.1845703-0.2827148,0.2143555-0.6391602,0.0791016-0.9487305l-2.7042236-6.175293h23.2218018  C67.0678711,57.0375977,67.9418945,56.1630859,67.9418945,55.0883789z M65.9418945,7.3349609l0.0410156,38.1713867H4.0581055  V7.3857422L65.9418945,7.3349609z M4.0581055,47.5063477h61.9269409l0.0081177,7.53125l-24.6141357,0.0202026  c-0.0459595-0.0064697-0.0900269-0.0202026-0.1373291-0.0202026H28.7583008c-0.0718994,0-0.1403198,0.0159302-0.2088623,0.0307007  l-24.491333,0.0200806V47.5063477z M43.0297852,62.6142578H26.9702148l2.4418945-5.5766602h11.1757812L43.0297852,62.6142578z"></path><path d="M13.137207,50.2719727H10.625c-0.5522461,0-1,0.4477539-1,1s0.4477539,1,1,1h2.512207c0.5522461,0,1-0.4477539,1-1  S13.6894531,50.2719727,13.137207,50.2719727z"></path><path d="M44.9165039,26.1328125h12.9169922c0.5522461,0,1-0.4477539,1-1V12.7993164c0-0.5522461-0.4477539-1-1-1H44.9165039  c-0.5522461,0-1,0.4477539-1,1v12.3334961C43.9165039,25.6850586,44.3642578,26.1328125,44.9165039,26.1328125z   M45.9165039,13.7993164h10.9169922v10.3334961H45.9165039V13.7993164z"></path><path d="M12.1665039,15.4458008h25.5c0.5522461,0,1-0.4477539,1-1s-0.4477539-1-1-1h-25.5c-0.5522461,0-1,0.4477539-1,1  S11.6142578,15.4458008,12.1665039,15.4458008z"></path><path d="M12.1665039,23.4458008H33.75c0.5522461,0,1-0.4477539,1-1s-0.4477539-1-1-1H12.1665039c-0.5522461,0-1,0.4477539-1,1  S11.6142578,23.4458008,12.1665039,23.4458008z"></path><path d="M12.1665039,31.4458008H41.75c0.5522461,0,1-0.4477539,1-1s-0.4477539-1-1-1H12.1665039c-0.5522461,0-1,0.4477539-1,1  S11.6142578,31.4458008,12.1665039,31.4458008z"></path><path d="M12.1665039,39.4458008h44.6669922c0.5522461,0,1-0.4477539,1-1s-0.4477539-1-1-1H12.1665039c-0.5522461,0-1,0.4477539-1,1  S11.6142578,39.4458008,12.1665039,39.4458008z"></path></svg>