<svg height='100px' width='100px'  fill="#3a2c3b" xmlns="http://www.w3.org/2000/svg" xmlns:xlink="http://www.w3.org/1999/xlink" version="1.1" x="0px" y="0px" viewBox="0 0 70 70" style="enable-background:new 0 0 70 70;" xml:space="preserve"><path d="M16.2011719,68h37.5976562c1.9755859,0,3.5830078-1.6074219,3.5830078-3.5830078v-7.5239258V14.9477539V5.5830078  C57.3818359,3.6074219,55.7744141,2,53.7988281,2H16.2011719c-1.9755859,0-3.5830078,1.6074219-3.5830078,3.5830078v9.3647461  v41.9453125v7.5239258C12.6181641,66.3925781,14.2255859,68,16.2011719,68z M55.3818359,55.8930664H14.6181641V15.9477539  h40.7636719V55.8930664z M55.3818359,64.4169922C55.3818359,65.2900391,54.671875,66,53.7988281,66H16.2011719  c-0.8730469,0-1.5830078-0.7099609-1.5830078-1.5830078v-6.5239258h40.7636719V64.4169922z M14.6181641,5.5830078  C14.6181641,4.7099609,15.328125,4,16.2011719,4h37.5976562c0.8730469,0,1.5830078,0.7099609,1.5830078,1.5830078v8.3647461  H14.6181641V5.5830078z"></path><path d="M38.1630859,7.9741211H24.9716797c-0.5527344,0-1,0.4477539-1,1s0.4472656,1,1,1h13.1914062c0.5527344,0,1-0.4477539,1-1  S38.7158203,7.9741211,38.1630859,7.9741211z"></path><path d="M45.0283203,7.9741211h-2.4541016c-0.5527344,0-1,0.4477539-1,1s0.4472656,1,1,1h2.4541016c0.5527344,0,1-0.4477539,1-1  S45.5810547,7.9741211,45.0283203,7.9741211z"></path><path d="M31.4785156,62.9462891h7.0429688c0.5527344,0,1-0.4477539,1-1s-0.4472656-1-1-1h-7.0429688c-0.5527344,0-1,0.4477539-1,1  S30.9257812,62.9462891,31.4785156,62.9462891z"></path><path d="M19.5654297,46.8803711c0.1962891,0.253418,0.4912109,0.3862305,0.7900391,0.3862305  c0.1274414,0,0.2532959-0.0327759,0.375-0.0825195h28.5400391c0.1217041,0.0497437,0.2475586,0.0825195,0.375,0.0825195  c0.2988281,0,0.59375-0.1328125,0.7900391-0.3862305c0.1449585-0.1859741,0.1983032-0.4070435,0.1956787-0.6256104  c0.0018311-0.0245972,0.0142822-0.0455933,0.0142822-0.0706787V25.5742188c0-0.0512085-0.0216675-0.0953369-0.0291138-0.1444702  c-0.0108643-0.0737305-0.0163574-0.1467285-0.0438232-0.2171631c-0.0280151-0.0718384-0.0741577-0.1305542-0.1171875-0.1931763  c-0.0272827-0.0401001-0.0406494-0.0861816-0.0745239-0.1229248c-0.0046997-0.005127-0.0113525-0.0067139-0.0161743-0.0117188  c-0.0563354-0.0588379-0.1273804-0.0984497-0.1965332-0.1420898c-0.0415649-0.026001-0.0771484-0.062561-0.1213989-0.0819092  c-0.0490723-0.0215454-0.1053467-0.0239258-0.1581421-0.0374756c-0.0742188-0.0188599-0.1464233-0.043457-0.2227173-0.0449829  c-0.0072021-0.0001221-0.0131836-0.0040894-0.0203857-0.0040894H20.3535156c-0.0072021,0-0.0131836,0.0039673-0.0203857,0.0040894  c-0.0762939,0.0015259-0.1484375,0.026123-0.2227173,0.0449829c-0.0527954,0.0135498-0.1091309,0.0159302-0.1581421,0.0374756  c-0.0441895,0.0193481-0.079834,0.0558472-0.1213379,0.0818481c-0.0692139,0.0437012-0.1402588,0.083313-0.1965942,0.1421509  c-0.0048218,0.0050049-0.0114746,0.0065918-0.0161743,0.0117188c-0.0339355,0.0368652-0.0474243,0.0830688-0.0748291,0.1233521  c-0.0428467,0.0625-0.0888672,0.1210327-0.1168213,0.192627c-0.0275269,0.0706177-0.0330811,0.1438599-0.0439453,0.2177734  c-0.0073853,0.0490112-0.0290527,0.0928955-0.0290527,0.1439819V46.184082c0,0.0302124,0.0145874,0.0556641,0.0172119,0.0852051  C19.3712769,46.4830322,19.4237061,46.6985474,19.5654297,46.8803711z M48.6455078,44.2212524l-9.6303711-7.4871216  l9.6303711-8.8779297V44.2212524z M33.0673828,38.6547852C33.609375,39.1542969,34.3046875,39.4038086,35,39.4038086  c0.6943359,0,1.3896484-0.2495117,1.9316406-0.7490234l0.5921631-0.5458984l9.1004639,7.0751953H23.376709l9.0994263-7.0743408  L33.0673828,38.6547852z M35.5761719,37.184082c-0.328125,0.3037109-0.8251953,0.3037109-1.1533203,0L22.9136963,26.5742188  h24.1716309L35.5761719,37.184082z M30.9848022,36.7349243l-9.6312866,7.487854V27.8562012L30.9848022,36.7349243z"></path></svg>