<svg height='100px' width='100px'  fill="#fefefe" xmlns="http://www.w3.org/2000/svg" xmlns:xlink="http://www.w3.org/1999/xlink" version="1.1" x="0px" y="0px" viewBox="0 0 70 70" style="enable-background:new 0 0 70 70;" xml:space="preserve"><path d="M57.3823242,64.4169922v-8.4394531V15.4023438V5.5830078C57.3823242,3.6074219,55.7749023,2,53.7993164,2H16.2006836  c-1.9755859,0-3.5830078,1.6074219-3.5830078,3.5830078v9.8193359v40.5751953v8.4394531  C12.6176758,66.3925781,14.2250977,68,16.2006836,68h37.5986328C55.7749023,68,57.3823242,66.3925781,57.3823242,64.4169922z   M14.6176758,16.4023438h40.7646484v38.5751953H14.6176758V16.4023438z M14.6176758,5.5830078  C14.6176758,4.7099609,15.3276367,4,16.2006836,4h37.5986328c0.8730469,0,1.5830078,0.7099609,1.5830078,1.5830078v8.8193359  H14.6176758V5.5830078z M55.3823242,64.4169922C55.3823242,65.2900391,54.6723633,66,53.7993164,66H16.2006836  c-0.8730469,0-1.5830078-0.7099609-1.5830078-1.5830078v-7.4394531h40.7646484V64.4169922z"></path><path d="M44.3095703,8.2011719H25.7255859c-0.5522461,0-1,0.4472656-1,1s0.4477539,1,1,1h18.5839844c0.5522461,0,1-0.4472656,1-1  S44.8618164,8.2011719,44.3095703,8.2011719z"></path><path d="M30.3154297,62.4882812h9.3691406c0.5522461,0,1-0.4472656,1-1s-0.4477539-1-1-1h-9.3691406c-0.5522461,0-1,0.4472656-1,1  S29.7631836,62.4882812,30.3154297,62.4882812z"></path><path d="M42.7338867,27.8974609c-0.390625-0.390625-1.0234375-0.390625-1.4140625,0s-0.390625,1.0234375,0,1.4140625L47.0087891,35  l-5.6889648,5.6884766c-0.390625,0.390625-0.390625,1.0234375,0,1.4140625  c0.1953125,0.1953125,0.4511719,0.2929688,0.7070312,0.2929688s0.5117188-0.0976562,0.7070312-0.2929688l6.3959961-6.3955078  c0.1875-0.1875,0.2929688-0.4414062,0.2929688-0.7070312s-0.1054688-0.5195312-0.2929688-0.7070312L42.7338867,27.8974609z"></path><path d="M28.6801758,27.8974609c-0.390625-0.390625-1.0234375-0.390625-1.4140625,0l-6.3959961,6.3955078  c-0.1875,0.1875-0.2929688,0.4414062-0.2929688,0.7070312s0.1054688,0.5195312,0.2929688,0.7070312l6.3959961,6.3955078  c0.1953125,0.1953125,0.4511719,0.2929688,0.7070312,0.2929688s0.5117188-0.0976562,0.7070312-0.2929688  c0.390625-0.390625,0.390625-1.0234375,0-1.4140625L22.9912109,35l5.6889648-5.6884766  C29.0708008,28.9208984,29.0708008,28.2880859,28.6801758,27.8974609z"></path><path d="M38.7075195,23.7167969c-0.5249023-0.1728516-1.0898438,0.1132812-1.262207,0.6376953l-6.7910156,20.6660156  c-0.1723633,0.5253906,0.1132812,1.0898438,0.6381836,1.2626953c0.1035156,0.0341797,0.2084961,0.0498047,0.3120117,0.0498047  c0.4204102,0,0.8115234-0.2666016,0.9501953-0.6875l6.7910156-20.6660156  C39.5180664,24.4541016,39.2324219,23.8896484,38.7075195,23.7167969z"></path></svg>