<svg height='100px' width='100px'  fill="#fefefe" xmlns="http://www.w3.org/2000/svg" xmlns:xlink="http://www.w3.org/1999/xlink" version="1.1" x="0px" y="0px" viewBox="0 0 70 70" style="enable-background:new 0 0 70 70;" xml:space="preserve"><path d="M35,2C22.5068359,2,12.3427734,12.1640625,12.3427734,24.6572266c0,10.6970215,16.2564697,34.8823242,20.7351685,41.3427734  H13.4121094c-0.5522461,0-1,0.4477539-1,1s0.4477539,1,1,1h43.1757812c0.5522461,0,1-0.4477539,1-1s-0.4477539-1-1-1H36.9220581  c4.4786987-6.4604492,20.7351685-30.645752,20.7351685-41.3427734C57.6572266,12.1640625,47.4931641,2,35,2z M35,4  c11.390625,0,20.6572266,9.2666016,20.6572266,20.6572266c0,10.2084961-16.734375,34.9414062-20.6572266,40.5986328  c-3.9228516-5.6567383-20.6572266-30.3881836-20.6572266-40.5986328C14.3427734,13.2666016,23.609375,4,35,4z"></path><path d="M50.8139648,25.0341797c0-8.7197266-7.0942383-15.8139648-15.8139648-15.8139648  s-15.8139648,7.0942383-15.8139648,15.8139648S26.2802734,40.8481445,35,40.8481445S50.8139648,33.7539062,50.8139648,25.0341797z   M21.1860352,25.0341797c0-7.6171875,6.1967773-13.8139648,13.8139648-13.8139648s13.8139648,6.1967773,13.8139648,13.8139648  S42.6171875,38.8481445,35,38.8481445S21.1860352,32.6513672,21.1860352,25.0341797z"></path></svg>