<svg height='100px' width='100px'  fill="#fefefe" xmlns="http://www.w3.org/2000/svg" xmlns:xlink="http://www.w3.org/1999/xlink" version="1.1" x="0px" y="0px" viewBox="0 0 70 70" style="enable-background:new 0 0 70 70;" xml:space="preserve"><path d="M16.2006836,68h37.5986328c1.9755859,0,3.5830078-1.6074219,3.5830078-3.5830078v-7.5239258V14.9477539V5.5830078  C57.3823242,3.6074219,55.7749023,2,53.7993164,2H16.2006836c-1.9755859,0-3.5830078,1.6074219-3.5830078,3.5830078v9.3647461  v41.9453125v7.5239258C12.6176758,66.3925781,14.2250977,68,16.2006836,68z M55.3823242,55.8930664H14.6176758V15.9477539  h40.7646484V55.8930664z M55.3823242,64.4169922C55.3823242,65.2900391,54.6723633,66,53.7993164,66H16.2006836  c-0.8730469,0-1.5830078-0.7099609-1.5830078-1.5830078v-6.5239258h40.7646484V64.4169922z M14.6176758,5.5830078  C14.6176758,4.7099609,15.3276367,4,16.2006836,4h37.5986328c0.8730469,0,1.5830078,0.7099609,1.5830078,1.5830078v8.3647461  H14.6176758V5.5830078z"></path><path d="M45.21875,7.9741211h-20.4375c-0.5522461,0-1,0.4477539-1,1s0.4477539,1,1,1h20.4375c0.5522461,0,1-0.4477539,1-1  S45.7709961,7.9741211,45.21875,7.9741211z"></path><path d="M32.2011719,62.9462891h5.5976562c0.5522461,0,1-0.4477539,1-1s-0.4477539-1-1-1h-5.5976562c-0.5522461,0-1,0.4477539-1,1  S31.6489258,62.9462891,32.2011719,62.9462891z"></path><path d="M20.7924805,39.9467773h1.9859619l1.3763428,9.6586914c0.0703125,0.4926758,0.4926758,0.8588867,0.9902344,0.8588867  h4.527832c0.2900391,0,0.5654297-0.1254883,0.7553711-0.3447266c0.1899414-0.21875,0.2753906-0.5092773,0.2348633-0.7963867  l-1.2897339-9.0620117c5.7147827,0.8126221,11.1488037,3.2028198,15.666687,6.9663086  c0.1831055,0.1508789,0.4091797,0.2290039,0.637207,0.2290039c0.1445312,0,0.2900391-0.03125,0.4257812-0.0952148  c0.3505859-0.1650391,0.5742188-0.5175781,0.5742188-0.9047852v-7.0093994  c2.8269653-0.4782715,4.9892578-2.9379272,4.9892578-5.8988037s-2.1622925-5.4205322-4.9892578-5.8988037v-7.1138916  c0-0.3896484-0.2260742-0.7436523-0.5795898-0.9072266c-0.3530273-0.1645508-0.769043-0.1074219-1.0664062,0.144043  c-5.6293945,4.765625-12.7905273,7.3901367-20.1669922,7.3901367c-0.0004883,0-0.0014648,0-0.0019531,0l-4.0693359-0.0004883  c-1.355957,0-2.4594727,1.1035156-2.4594727,2.4594727v7.8657227  C18.3334961,38.8432617,19.4365234,39.9467773,20.7924805,39.9467773z M28.5205078,48.4643555h-2.5078125l-1.213623-8.5175781  h0.2043457c0.7755127,0,1.5480957,0.0352783,2.317749,0.0929565L28.5205078,48.4643555z M28.6083984,38.1685791v-9.2442627  c4.243103-0.4832764,8.3461304-1.7722168,12.0859375-3.7999268v16.7858276  C36.9502563,39.9039307,32.8457642,38.6339111,28.6083984,38.1685791z M49.6665039,33.5483398  c0,1.852356-1.2749634,3.3998413-2.9892578,3.8468018v-7.6936035  C48.3915405,30.1484985,49.6665039,31.6959839,49.6665039,33.5483398z M44.6772461,44.4018555  c-0.644165-0.4733276-1.3086548-0.9147339-1.9829102-1.3388062V23.958374  c0.6742554-0.4289551,1.3389282-0.8748779,1.9829102-1.3533936V44.4018555z M20.3334961,29.621582  c0-0.253418,0.2060547-0.4594727,0.4594727-0.4594727l4.0693359,0.0004883c0.0009766,0,0.0009766,0,0.0019531,0  c0.5837402,0,1.1634521-0.0397339,1.7441406-0.0704346v8.9190063c-0.5346069-0.026062-1.0679321-0.0643921-1.6049805-0.0643921  h-4.2109375c-0.2529297,0-0.4589844-0.2060547-0.4589844-0.4594727V29.621582z"></path></svg>